<mxfile host="app.diagrams.net" modified="2024-05-07T06:03:09.537Z" agent="Mozilla/5.0 (Windows NT 10.0; WOW64) AppleWebKit/537.36 (KHTML, like Gecko) Chrome/86.0.4240.198 Safari/537.36" etag="AjDWrO_um70raZkTV_x8" version="24.3.1" type="github">
  <diagram name="第 1 页" id="a_ktVqfNjtF6P19huXqo">
    <mxGraphModel dx="1388" dy="818" grid="0" gridSize="10" guides="1" tooltips="1" connect="1" arrows="1" fold="1" page="1" pageScale="1" pageWidth="4681" pageHeight="3300" math="0" shadow="0">
      <root>
        <mxCell id="0" />
        <mxCell id="1" parent="0" />
        <mxCell id="be0yT6VjNSUWFoazWU_S-13" style="edgeStyle=orthogonalEdgeStyle;rounded=0;orthogonalLoop=1;jettySize=auto;html=1;exitX=0.5;exitY=1;exitDx=0;exitDy=0;fontSize=22;" parent="1" source="be0yT6VjNSUWFoazWU_S-1" target="be0yT6VjNSUWFoazWU_S-4" edge="1">
          <mxGeometry relative="1" as="geometry" />
        </mxCell>
        <mxCell id="be0yT6VjNSUWFoazWU_S-1" value="&lt;font style=&quot;font-size: 22px;&quot;&gt;构建马尔可夫模型&lt;/font&gt;" style="rounded=1;whiteSpace=wrap;html=1;absoluteArcSize=1;arcSize=14;strokeWidth=2;fontSize=22;" parent="1" vertex="1">
          <mxGeometry x="390" y="333" width="369" height="71" as="geometry" />
        </mxCell>
        <mxCell id="be0yT6VjNSUWFoazWU_S-3" style="edgeStyle=orthogonalEdgeStyle;rounded=0;orthogonalLoop=1;jettySize=auto;html=1;exitX=0.5;exitY=1;exitDx=0;exitDy=0;fontSize=22;" parent="1" source="be0yT6VjNSUWFoazWU_S-2" target="be0yT6VjNSUWFoazWU_S-1" edge="1">
          <mxGeometry relative="1" as="geometry" />
        </mxCell>
        <mxCell id="be0yT6VjNSUWFoazWU_S-2" value="&lt;font style=&quot;font-size: 22px;&quot;&gt;获取基本概率赋值函数&lt;/font&gt;" style="rounded=1;whiteSpace=wrap;html=1;absoluteArcSize=1;arcSize=14;strokeWidth=2;fontSize=22;" parent="1" vertex="1">
          <mxGeometry x="390" y="203" width="369" height="71" as="geometry" />
        </mxCell>
        <mxCell id="be0yT6VjNSUWFoazWU_S-14" style="edgeStyle=orthogonalEdgeStyle;rounded=0;orthogonalLoop=1;jettySize=auto;html=1;exitX=0.5;exitY=1;exitDx=0;exitDy=0;fontSize=22;" parent="1" source="be0yT6VjNSUWFoazWU_S-4" target="be0yT6VjNSUWFoazWU_S-6" edge="1">
          <mxGeometry relative="1" as="geometry" />
        </mxCell>
        <mxCell id="be0yT6VjNSUWFoazWU_S-4" value="&lt;font style=&quot;font-size: 22px;&quot;&gt;&lt;font style=&quot;font-size: 22px;&quot;&gt;应用&lt;/font&gt;Dempster&lt;span style=&quot;font-family: 黑体; font-size: 22px;&quot;&gt;合成规则&lt;/span&gt;&lt;/font&gt;" style="rounded=1;whiteSpace=wrap;html=1;absoluteArcSize=1;arcSize=14;strokeWidth=2;fontSize=22;" parent="1" vertex="1">
          <mxGeometry x="390" y="463" width="369" height="71" as="geometry" />
        </mxCell>
        <mxCell id="be0yT6VjNSUWFoazWU_S-15" style="edgeStyle=orthogonalEdgeStyle;rounded=0;orthogonalLoop=1;jettySize=auto;html=1;exitX=0.5;exitY=1;exitDx=0;exitDy=0;fontSize=22;" parent="1" source="be0yT6VjNSUWFoazWU_S-6" target="be0yT6VjNSUWFoazWU_S-11" edge="1">
          <mxGeometry relative="1" as="geometry" />
        </mxCell>
        <mxCell id="be0yT6VjNSUWFoazWU_S-6" value="&lt;span style=&quot;font-size: 22px;&quot;&gt;更新状态并预测&lt;/span&gt;" style="rounded=1;whiteSpace=wrap;html=1;absoluteArcSize=1;arcSize=14;strokeWidth=2;fontSize=22;" parent="1" vertex="1">
          <mxGeometry x="390" y="593" width="369" height="71" as="geometry" />
        </mxCell>
        <mxCell id="be0yT6VjNSUWFoazWU_S-10" style="edgeStyle=orthogonalEdgeStyle;rounded=0;orthogonalLoop=1;jettySize=auto;html=1;exitX=0.5;exitY=1;exitDx=0;exitDy=0;exitPerimeter=0;entryX=0.5;entryY=0;entryDx=0;entryDy=0;fontSize=22;" parent="1" source="be0yT6VjNSUWFoazWU_S-9" target="be0yT6VjNSUWFoazWU_S-2" edge="1">
          <mxGeometry relative="1" as="geometry" />
        </mxCell>
        <mxCell id="be0yT6VjNSUWFoazWU_S-9" value="&lt;font style=&quot;font-size: 22px;&quot;&gt;开始&lt;/font&gt;" style="strokeWidth=2;html=1;shape=mxgraph.flowchart.start_1;whiteSpace=wrap;fontSize=22;" parent="1" vertex="1">
          <mxGeometry x="503.5" y="56" width="142" height="88" as="geometry" />
        </mxCell>
        <mxCell id="be0yT6VjNSUWFoazWU_S-11" value="&lt;font style=&quot;font-size: 22px;&quot;&gt;结束&lt;/font&gt;" style="strokeWidth=2;html=1;shape=mxgraph.flowchart.start_1;whiteSpace=wrap;fontSize=22;" parent="1" vertex="1">
          <mxGeometry x="503.5" y="723" width="142" height="88" as="geometry" />
        </mxCell>
      </root>
    </mxGraphModel>
  </diagram>
</mxfile>
